<svg width="34" height="29" viewBox="0 0 34 29" fill="none" xmlns="http://www.w3.org/2000/svg">
<mask id="path-1-inside-1" fill="white">
<path d="M31.5714 0.5H2.42857C1.78447 0.5 1.16676 0.794999 0.711312 1.3201C0.255866 1.8452 0 2.55739 0 3.3V25.7C0 26.4426 0.255866 27.1548 0.711312 27.6799C1.16676 28.205 1.78447 28.5 2.42857 28.5H31.5714C32.2155 28.5 32.8332 28.205 33.2887 27.6799C33.7441 27.1548 34 26.4426 34 25.7V3.3C34 2.55739 33.7441 1.8452 33.2887 1.3201C32.8332 0.794999 32.2155 0.5 31.5714 0.5ZM28.9 3.3L17 12.792L5.1 3.3H28.9ZM2.42857 25.7V4.574L16.3079 15.648C16.5111 15.8106 16.7526 15.8977 17 15.8977C17.2474 15.8977 17.4889 15.8106 17.6921 15.648L31.5714 4.574V25.7H2.42857Z"/>
</mask>
<path d="M31.5714 0.5V-11.5V0.5ZM2.42857 0.5V-11.5V0.5ZM0 3.3H-12H0ZM0 25.7H-12H0ZM28.9 3.3L36.3829 12.6812L63.1882 -8.7H28.9V3.3ZM17 12.792L9.51713 22.1732L17 28.1419L24.4829 22.1732L17 12.792ZM5.1 3.3V-8.7H-29.1882L-2.38287 12.6812L5.1 3.3ZM2.42857 25.7H-9.57143V37.7H2.42857V25.7ZM2.42857 4.574L9.91278 -4.80612L-9.57143 -20.3522V4.574H2.42857ZM16.3079 15.648L23.8032 6.2768L23.7976 6.27233L23.7921 6.26788L16.3079 15.648ZM17 15.8977V3.8977V15.8977ZM17.6921 15.648L10.2079 6.26788L10.2024 6.27233L10.1968 6.2768L17.6921 15.648ZM31.5714 4.574H43.5714V-20.3522L24.0872 -4.80612L31.5714 4.574ZM31.5714 25.7V37.7H43.5714V25.7H31.5714ZM31.5714 -11.5H2.42857V12.5H31.5714V-11.5ZM2.42857 -11.5C-1.99392 -11.5 -5.82329 -9.46023 -8.3539 -6.54259L9.77653 9.18279C8.15681 11.0502 5.56287 12.5 2.42857 12.5V-11.5ZM-8.3539 -6.54259C-10.8378 -3.67877 -12 -0.117205 -12 3.3H12C12 5.23199 11.3496 7.36918 9.77653 9.18279L-8.3539 -6.54259ZM-12 3.3V25.7H12V3.3H-12ZM-12 25.7C-12 29.1172 -10.8378 32.6788 -8.3539 35.5426L9.77653 19.8172C11.3496 21.6308 12 23.768 12 25.7H-12ZM-8.3539 35.5426C-5.8233 38.4602 -1.99393 40.5 2.42857 40.5V16.5C5.56288 16.5 8.15681 17.9498 9.77653 19.8172L-8.3539 35.5426ZM2.42857 40.5H31.5714V16.5H2.42857V40.5ZM31.5714 40.5C35.9939 40.5 39.8233 38.4602 42.3539 35.5426L24.2235 19.8172C25.8432 17.9498 28.4371 16.5 31.5714 16.5V40.5ZM42.3539 35.5426C44.8378 32.6788 46 29.1172 46 25.7H22C22 23.768 22.6504 21.6308 24.2235 19.8172L42.3539 35.5426ZM46 25.7V3.3H22V25.7H46ZM46 3.3C46 -0.117208 44.8378 -3.67878 42.3539 -6.54259L24.2235 9.18279C22.6504 7.36918 22 5.232 22 3.3H46ZM42.3539 -6.54259C39.8233 -9.46023 35.9939 -11.5 31.5714 -11.5V12.5C28.4371 12.5 25.8432 11.0502 24.2235 9.18279L42.3539 -6.54259ZM21.4171 -6.08118L9.51713 3.41082L24.4829 22.1732L36.3829 12.6812L21.4171 -6.08118ZM24.4829 3.41082L12.5829 -6.08118L-2.38287 12.6812L9.51713 22.1732L24.4829 3.41082ZM5.1 15.3H28.9V-8.7H5.1V15.3ZM14.4286 25.7V4.574H-9.57143V25.7H14.4286ZM-5.05563 13.9541L8.82365 25.0281L23.7921 6.26788L9.91278 -4.80612L-5.05563 13.9541ZM8.81249 25.0192C11.0238 26.7879 13.879 27.8977 17 27.8977V3.8977C19.6263 3.8977 21.9984 4.83326 23.8032 6.2768L8.81249 25.0192ZM17 27.8977C20.121 27.8977 22.9762 26.7879 25.1875 25.0192L10.1968 6.2768C12.0016 4.83326 14.3737 3.8977 17 3.8977V27.8977ZM25.1763 25.0281L39.0556 13.9541L24.0872 -4.80612L10.2079 6.26788L25.1763 25.0281ZM19.5714 4.574V25.7H43.5714V4.574H19.5714ZM31.5714 13.7H2.42857V37.7H31.5714V13.7Z" fill="#756585" mask="url(#path-1-inside-1)"/>
</svg>