<svg width="243" height="65" viewBox="0 0 243 65" fill="none" xmlns="http://www.w3.org/2000/svg">
<g clip-path="url(#clip0)">
<path d="M88.7142 23.6804V27.8432C88.7142 32.8249 85.848 35.6911 80.2521 35.6911C74.6562 35.6911 71.79 32.8249 71.79 27.8432V11.6014C71.79 6.61973 74.6562 3.75354 80.2521 3.75354C85.848 3.75354 88.7142 6.61973 88.7142 11.6014V14.6041H83.323V11.2602C83.323 9.00822 82.1629 8.18931 80.3886 8.18931C78.6143 8.18931 77.4542 9.00822 77.4542 11.2602V28.0479C77.4542 30.2999 78.6143 31.0506 80.3886 31.0506C82.1629 31.0506 83.323 30.2317 83.323 28.0479V23.6121H88.7142V23.6804Z" fill="#8A178C"/>
<path d="M106.049 26.3418H102.705L101.613 35.2133H96.9726L98.0645 26.3418H95.5396L95.949 22.8614H98.474L99.4294 14.7405H96.9044L97.3139 11.2601H99.9071L100.794 4.09467H105.435L104.548 11.2601H107.891L108.779 4.09467H113.419L112.532 11.2601H115.193L114.784 14.7405H112.123L111.167 22.8614H113.829L113.419 26.3418H110.758L109.666 35.2133H105.025L106.049 26.3418ZM103.114 22.9296H106.458L107.414 14.8088H104.07L103.114 22.9296Z" fill="#8A178C"/>
<path d="M134.711 26.2053L138.532 4.16296H146.448V35.2816H141.057V12.9663L137.167 35.2816H131.776L127.545 13.2392V35.2816H122.563V4.16296H130.48L134.711 26.2053Z" fill="#8A178C"/>
<path d="M160.916 17.948H168.218V22.3837H160.916V35.2133H155.252V4.16296H170.265V8.59873H160.916V17.948Z" fill="#FFB703"/>
<path d="M183.299 17.2655H191.079V21.7013H183.299V30.8458H193.126V35.2816H177.635V4.16296H193.126V8.59873H183.299V17.2655Z" fill="#FFB703"/>
<path d="M217.762 23.6803V27.8431C217.762 32.8248 214.895 35.691 209.3 35.691C203.704 35.691 200.837 32.8248 200.837 27.8431V11.6013C200.837 6.61961 203.704 3.75342 209.3 3.75342C214.895 3.75342 217.762 6.61961 217.762 11.6013V14.604H212.37V11.2601C212.37 9.0081 211.21 8.18919 209.436 8.18919C207.662 8.18919 206.502 9.0081 206.502 11.2601V28.0478C206.502 30.2998 207.662 31.0505 209.436 31.0505C211.21 31.0505 212.37 30.2315 212.37 28.0478V23.612H217.762V23.6803Z" fill="#8A178C"/>
<path d="M225.405 11.6013C225.405 6.61961 228.476 3.75342 234.003 3.75342C239.599 3.75342 242.602 6.61961 242.602 11.6013V27.7748C242.602 32.7565 239.531 35.6227 234.003 35.6227C228.407 35.6227 225.405 32.7565 225.405 27.7748V11.6013ZM231.069 28.116C231.069 30.368 232.229 31.1869 234.003 31.1869C235.778 31.1869 236.938 30.368 236.938 28.116V11.2601C236.938 9.0081 235.778 8.18919 234.003 8.18919C232.229 8.18919 231.069 9.0081 231.069 11.2601V28.116Z" fill="#8A178C"/>
<path d="M30.6411 22.5882L30.5729 30.2314L34.3262 32.5516V28.1158L46.2687 35.8955V39.4441L34.1897 47.019V43.3339L30.4364 45.586L30.3682 53.2291L50.022 40.9455V35.2131L30.6411 22.5882Z" fill="url(#paint0_linear)"/>
<path d="M44.7673 36.4417V39.1031L35.7593 44.699V41.1504L41.5599 37.7383V37.67L35.8275 34.1214V30.5728L44.7673 36.4417Z" fill="url(#paint1_linear)"/>
<path d="M34.1202 42.1058L34.1884 34.4626L30.4351 32.2106V36.6464L18.4926 28.8667L18.5608 25.3181L30.5715 17.8114V21.4283L34.3249 19.2445V11.6013L14.8075 23.8167L14.7393 29.5491L34.1202 42.1058Z" fill="url(#paint2_linear)"/>
<path d="M20.0635 28.3205V25.659L29.0033 20.0631V23.5435L23.2709 26.9556V27.0239L29.0033 30.5042V33.9846L20.0635 28.3205Z" fill="url(#paint3_linear)"/>
<path d="M32.4152 64.8305C14.5357 64.8305 0 50.2948 0 32.4152C0 14.5357 14.5357 0 32.4152 0C50.2948 0 64.8305 14.5357 64.8305 32.4152C64.8305 50.2948 50.2948 64.8305 32.4152 64.8305ZM32.4152 3.00267C16.1735 3.00267 3.00267 16.1735 3.00267 32.4152C3.00267 48.657 16.1735 61.8278 32.4152 61.8278C48.657 61.8278 61.8278 48.657 61.8278 32.4152C61.8278 16.1735 48.5887 3.00267 32.4152 3.00267Z" fill="url(#paint4_linear)"/>
<path d="M71.79 41.0823H242.26V43.1296H71.79V41.0823Z" fill="url(#paint5_linear)"/>
<path d="M77.1132 56.3683V57.7332C77.1132 59.371 76.1578 60.2582 74.3835 60.2582C72.6092 60.2582 71.6538 59.371 71.6538 57.7332V52.5468C71.6538 50.9089 72.6092 50.0218 74.3835 50.0218C76.1578 50.0218 77.1132 50.9089 77.1132 52.5468V53.5022H75.4072V52.4103C75.4072 51.7279 75.0659 51.4549 74.4518 51.4549C73.8376 51.4549 73.4964 51.7279 73.4964 52.4103V57.8014C73.4964 58.4839 73.8376 58.7568 74.4518 58.7568C75.0659 58.7568 75.4072 58.4839 75.4072 57.8014V56.3683H77.1132Z" fill="#8A178C"/>
<path d="M79.5693 52.479C79.5693 50.8411 80.5247 49.954 82.3673 49.954C84.1416 49.954 85.1652 50.8411 85.1652 52.479V57.6654C85.1652 59.3032 84.2098 60.1904 82.3673 60.1904C80.593 60.1904 79.5693 59.3032 79.5693 57.6654V52.479ZM81.4119 57.8019C81.4119 58.4843 81.7531 58.7573 82.3673 58.7573C82.9815 58.7573 83.3227 58.4843 83.3227 57.8019V52.4107C83.3227 51.7283 82.9815 51.4553 82.3673 51.4553C81.7531 51.4553 81.4119 51.7283 81.4119 52.4107V57.8019Z" fill="#8A178C"/>
<path d="M91.6478 57.256L92.8761 50.1588H95.4011V60.1905H93.695V52.9568L92.3984 60.1222H90.7606L89.3958 53.025V60.1222H87.8262V50.0906H90.3511L91.6478 57.256Z" fill="#8A178C"/>
<path d="M102.158 57.256L103.386 50.1588H105.911V60.1905H104.205V52.9568L102.909 60.1222H101.203L99.8376 53.025V60.1222H98.2681V50.0906H100.793L102.158 57.256Z" fill="#8A178C"/>
<path d="M110.552 50.0906V57.802C110.552 58.4844 110.893 58.7574 111.507 58.7574C112.122 58.7574 112.463 58.4844 112.463 57.802V50.0906H114.169V57.7337C114.169 59.3716 113.213 60.2587 111.439 60.2587C109.665 60.2587 108.709 59.3716 108.709 57.7337V50.0906H110.552Z" fill="#8A178C"/>
<path d="M118.537 52.8885V60.1222H116.899V50.0906H119.219L121.13 56.0959V50.0906H122.768V60.1222H120.789L118.537 52.8885Z" fill="#8A178C"/>
<path d="M125.497 50.0906H127.34V60.1222H125.497V50.0906Z" fill="#8A178C"/>
<path d="M129.66 50.0906H135.324V51.5237H133.413V60.1222H131.57V51.5237H129.66V50.0906Z" fill="#8A178C"/>
<path d="M139.281 56.7783L136.961 50.0906H138.872L140.237 54.6628L141.601 50.0906H143.376L141.055 56.7783V60.1222H139.213V56.7783H139.281Z" fill="#8A178C"/>
<path d="M151.566 54.5263H153.954V55.9594H151.566V60.1222H149.723V50.0906H154.568V51.5237H151.566V54.5263Z" fill="#FFB703"/>
<path d="M158.799 54.3216H161.324V55.7547H158.799V58.6891H161.938V60.1222H156.957V50.0906H161.938V51.5237H158.799V54.3216Z" fill="#FFB703"/>
<path d="M167.057 50.0223C168.831 50.0223 169.787 50.9094 169.787 52.5473V52.8885H168.081V52.479C168.081 51.7966 167.739 51.5236 167.193 51.5236C166.648 51.5236 166.306 51.7966 166.306 52.479C166.306 54.5263 169.855 54.9357 169.855 57.8019C169.855 59.4398 168.9 60.3269 167.125 60.3269C165.351 60.3269 164.396 59.4398 164.396 57.8019V57.1878H166.102V57.9384C166.102 58.6208 166.443 58.8938 167.057 58.8938C167.671 58.8938 168.012 58.6208 168.012 57.9384C168.012 55.8911 164.464 55.4817 164.464 52.6155C164.327 50.9094 165.283 50.0223 167.057 50.0223Z" fill="#FFB703"/>
<path d="M171.765 50.0906H177.429V51.5237H175.518V60.1222H173.675V51.5237H171.765V50.0906Z" fill="#FFB703"/>
<path d="M189.713 60.1222H187.87L187.529 58.2797H185.277L184.936 60.1222H183.23L185.073 50.0906H187.734L189.713 60.1222ZM185.55 56.9831H187.325L186.437 51.9331L185.55 56.9831Z" fill="#521E87"/>
<path d="M193.672 52.8885V60.1222H192.034V50.0906H194.354L196.265 56.0959V50.0906H197.903V60.1222H195.992L193.672 52.8885Z" fill="#521E87"/>
<path d="M200.632 50.0906H203.498C205.341 50.0906 206.228 50.9777 206.228 52.5473V57.5973C206.228 59.2351 205.341 60.054 203.498 60.054H200.632V50.0906ZM202.474 51.5237V58.6891H203.498C204.112 58.6891 204.453 58.4162 204.453 57.7337V52.5473C204.453 51.8649 204.112 51.5919 203.498 51.5919H202.474V51.5237Z" fill="#521E87"/>
<path d="M218.307 56.3688V57.7337C218.307 59.3715 217.352 60.2587 215.577 60.2587C213.803 60.2587 212.848 59.3715 212.848 57.7337V52.5473C212.848 50.9094 213.803 50.0223 215.577 50.0223C217.352 50.0223 218.307 50.9094 218.307 52.5473V53.5026H216.601V52.4108C216.601 51.7283 216.26 51.4554 215.646 51.4554C215.031 51.4554 214.69 51.7283 214.69 52.4108V57.8019C214.69 58.4844 215.031 58.7573 215.646 58.7573C216.26 58.7573 216.601 58.4844 216.601 57.8019V56.3688H218.307Z" fill="#521E87"/>
<path d="M220.764 52.479C220.764 50.8411 221.719 49.954 223.562 49.954C225.404 49.954 226.36 50.8411 226.36 52.479V57.6654C226.36 59.3032 225.404 60.1904 223.562 60.1904C221.719 60.1904 220.764 59.3032 220.764 57.6654V52.479ZM222.606 57.8019C222.606 58.4843 222.947 58.7573 223.562 58.7573C224.176 58.7573 224.517 58.4843 224.517 57.8019V52.4107C224.517 51.7283 224.176 51.4553 223.562 51.4553C222.947 51.4553 222.606 51.7283 222.606 52.4107V57.8019Z" fill="#521E87"/>
<path d="M229.021 50.0906H231.887C233.729 50.0906 234.616 50.9777 234.616 52.5473V57.5973C234.616 59.2351 233.729 60.054 231.887 60.054H229.021V50.0906ZM230.863 51.5237V58.6891H231.887C232.501 58.6891 232.842 58.4162 232.842 57.7337V52.5473C232.842 51.8649 232.501 51.5919 231.887 51.5919H230.863V51.5237Z" fill="#521E87"/>
<path d="M239.12 54.3216H241.645V55.7547H239.12V58.6891H242.26V60.1222H237.278V50.0906H242.26V51.5237H239.12V54.3216Z" fill="#521E87"/>
</g>
<defs>
<linearGradient id="paint0_linear" x1="41.6695" y1="46.728" x2="28.4735" y2="23.8725" gradientUnits="userSpaceOnUse">
<stop stop-color="#521E87"/>
<stop offset="0.1455" stop-color="#5C1D88"/>
<stop offset="0.3882" stop-color="#751A8A"/>
<stop offset="0.5493" stop-color="#8A178C"/>
<stop offset="0.5628" stop-color="#8E1C87"/>
<stop offset="0.7755" stop-color="#C36E42"/>
<stop offset="0.9262" stop-color="#E4A017"/>
<stop offset="1" stop-color="#F1B406"/>
</linearGradient>
<linearGradient id="paint1_linear" x1="40.9174" y1="41.7585" x2="34.859" y2="31.2652" gradientUnits="userSpaceOnUse">
<stop stop-color="#521E87"/>
<stop offset="0.1455" stop-color="#5C1D88"/>
<stop offset="0.3882" stop-color="#751A8A"/>
<stop offset="0.5493" stop-color="#8A178C"/>
<stop offset="0.5628" stop-color="#8E1C87"/>
<stop offset="0.7755" stop-color="#C36E42"/>
<stop offset="0.9262" stop-color="#E4A017"/>
<stop offset="1" stop-color="#F1B406"/>
</linearGradient>
<linearGradient id="paint2_linear" x1="36.2816" y1="40.8559" x2="23.1241" y2="18.067" gradientUnits="userSpaceOnUse">
<stop stop-color="#521E87"/>
<stop offset="0.1455" stop-color="#5C1D88"/>
<stop offset="0.3882" stop-color="#751A8A"/>
<stop offset="0.5493" stop-color="#8A178C"/>
<stop offset="0.5628" stop-color="#8E1C87"/>
<stop offset="0.7755" stop-color="#C36E42"/>
<stop offset="0.9262" stop-color="#E4A017"/>
<stop offset="1" stop-color="#F1B406"/>
</linearGradient>
<linearGradient id="paint3_linear" x1="29.916" y1="33.4847" x2="23.8751" y2="23.022" gradientUnits="userSpaceOnUse">
<stop stop-color="#521E87"/>
<stop offset="0.1455" stop-color="#5C1D88"/>
<stop offset="0.3882" stop-color="#751A8A"/>
<stop offset="0.5493" stop-color="#8A178C"/>
<stop offset="0.5628" stop-color="#8E1C87"/>
<stop offset="0.7755" stop-color="#C36E42"/>
<stop offset="0.9262" stop-color="#E4A017"/>
<stop offset="1" stop-color="#F1B406"/>
</linearGradient>
<linearGradient id="paint4_linear" x1="48.6049" y1="60.4636" x2="16.2059" y2="4.34692" gradientUnits="userSpaceOnUse">
<stop stop-color="#521E87"/>
<stop offset="0.1455" stop-color="#5C1D88"/>
<stop offset="0.3882" stop-color="#751A8A"/>
<stop offset="0.5493" stop-color="#8A178C"/>
<stop offset="0.5628" stop-color="#8E1C87"/>
<stop offset="0.7755" stop-color="#C36E42"/>
<stop offset="0.9262" stop-color="#E4A017"/>
<stop offset="1" stop-color="#F1B406"/>
</linearGradient>
<linearGradient id="paint5_linear" x1="71.7991" y1="42.1138" x2="242.228" y2="42.1138" gradientUnits="userSpaceOnUse">
<stop stop-color="#521E87"/>
<stop offset="0.1455" stop-color="#5C1D88"/>
<stop offset="0.3882" stop-color="#751A8A"/>
<stop offset="0.5493" stop-color="#8A178C"/>
<stop offset="0.5628" stop-color="#8E1C87"/>
<stop offset="0.7755" stop-color="#C36E42"/>
<stop offset="0.9262" stop-color="#E4A017"/>
<stop offset="1" stop-color="#F1B406"/>
</linearGradient>
<clipPath id="clip0">
<rect width="242.602" height="64.8305" fill="white"/>
</clipPath>
</defs>
</svg>
